<svg xmlns="http://www.w3.org/2000/svg" viewBox="0 0 960 420" role="img" aria-label="Stickman fleeing code projectiles">
  <defs>
    <linearGradient id="bg" x1="0%" y1="0%" x2="100%" y2="100%">
      <stop offset="0%" stop-color="#020617" />
      <stop offset="45%" stop-color="#0F172A" />
      <stop offset="100%" stop-color="#030712" />
    </linearGradient>
    <radialGradient id="glow" cx="52%" cy="48%" r="58%">
      <stop offset="0%" stop-color="#93C5FD" stop-opacity="0.26" />
      <stop offset="55%" stop-color="#3B82F6" stop-opacity="0.12" />
      <stop offset="100%" stop-color="#020617" stop-opacity="0" />
    </radialGradient>
    <linearGradient id="track" x1="0%" y1="0%" x2="100%" y2="0%">
      <stop offset="0%" stop-color="#1D4ED8" stop-opacity="0" />
      <stop offset="45%" stop-color="#3B82F6" stop-opacity="0.8" />
      <stop offset="100%" stop-color="#1D4ED8" stop-opacity="0" />
    </linearGradient>
    <linearGradient id="codeCard" x1="0%" y1="0%" x2="100%" y2="100%">
      <stop offset="0%" stop-color="#111827" />
      <stop offset="100%" stop-color="#050816" />
    </linearGradient>
    <linearGradient id="codeEdge" x1="0%" y1="0%" x2="100%" y2="0%">
      <stop offset="0%" stop-color="#3B82F6" stop-opacity="0.15" />
      <stop offset="50%" stop-color="#93C5FD" stop-opacity="0.9" />
      <stop offset="100%" stop-color="#3B82F6" stop-opacity="0.15" />
    </linearGradient>
    <filter id="soft" x="-30%" y="-30%" width="160%" height="160%">
      <feGaussianBlur stdDeviation="8" />
    </filter>
    <filter id="trail" x="-40%" y="-40%" width="180%" height="180%">
      <feGaussianBlur stdDeviation="4" />
    </filter>
    <filter id="shadow" x="-40%" y="-40%" width="180%" height="180%">
      <feGaussianBlur stdDeviation="18" />
    </filter>
  </defs>

  <rect width="960" height="420" fill="url(#bg)" />
  <circle cx="520" cy="190" r="220" fill="url(#glow)" />

  <g opacity="0.12" stroke="#3B82F6" stroke-linecap="round">
    <path d="M60 88h840" stroke-width="1" />
    <path d="M70 126h780" stroke-width="1" />
    <path d="M80 340h800" stroke-width="1" />
  </g>

  <g filter="url(#soft)" opacity="0.32">
    <circle cx="220" cy="120" r="58" fill="#3B82F6">
      <animate attributeName="r" values="50;72;50" dur="7s" repeatCount="indefinite" />
      <animate attributeName="opacity" values="0.18;0.42;0.18" dur="7s" repeatCount="indefinite" />
    </circle>
    <circle cx="744" cy="112" r="52" fill="#2563EB">
      <animate attributeName="r" values="44;64;44" dur="8s" repeatCount="indefinite" />
      <animate attributeName="opacity" values="0.14;0.34;0.14" dur="8s" repeatCount="indefinite" />
    </circle>
  </g>

  <g filter="url(#shadow)" opacity="0.44">
    <ellipse cx="494" cy="338" rx="268" ry="28" fill="#020617" />
  </g>

  <g transform="translate(0 0)">
    <animateTransform attributeName="transform" type="translate" values="0 0;-160 0" dur="2.8s" repeatCount="indefinite" />
    <g opacity="0.4" stroke="#1D4ED8" stroke-width="3" stroke-linecap="round" stroke-dasharray="36 28">
      <path d="M0 296H960" />
      <path d="M40 314H920" />
      <path d="M90 330H950" />
    </g>
  </g>

  <g opacity="0.22" stroke="#93C5FD" stroke-width="2" stroke-linecap="round">
    <path d="M92 248h48" />
    <path d="M132 262h60" />
    <path d="M166 276h42" />
  </g>

  <g transform="translate(180 214)">
    <animateTransform attributeName="transform" type="translate" values="180 214;176 210;180 214" dur="1.4s" repeatCount="indefinite" />
    <g stroke="#E2E8F0" stroke-width="8" stroke-linecap="round" stroke-linejoin="round" fill="none">
      <circle cx="0" cy="-24" r="20" fill="#0B1120" stroke="#F8FAFC" stroke-opacity="0.9" />
      <path d="M0 -4v58" />
      <path d="M0 18c-26 6-42 20-54 38" />
      <path d="M0 20c30 4 46 12 58 26" />
      <path d="M0 54c-26 12-42 32-50 54" />
      <path d="M0 54c24 10 40 28 48 52" />
    </g>
    <g>
      <path d="M-6 4l6 10 6-10-6-6z" fill="#3B82F6" opacity="0.9" />
    </g>
    <g stroke="#F8FAFC" stroke-width="7" stroke-linecap="round">
      <g>
        <path d="M0 20c22 2 38 0 52-10" />
        <animateTransform attributeName="transform" type="rotate" values="18 0 20;-12 0 20;18 0 20" dur="0.65s" repeatCount="indefinite" />
      </g>
      <g>
        <path d="M0 20c-18 6-32 16-40 32" />
        <animateTransform attributeName="transform" type="rotate" values="-28 0 20;12 0 20;-28 0 20" dur="0.65s" repeatCount="indefinite" />
      </g>
      <g>
        <path d="M0 54c18 18 30 28 40 50" />
        <animateTransform attributeName="transform" type="rotate" values="34 0 54;-18 0 54;34 0 54" dur="0.65s" repeatCount="indefinite" />
      </g>
      <g>
        <path d="M0 54c-16 16-28 34-34 56" />
        <animateTransform attributeName="transform" type="rotate" values="-34 0 54;18 0 54;-34 0 54" dur="0.65s" repeatCount="indefinite" />
      </g>
    </g>
  </g>

  <g opacity="0.18" filter="url(#trail)">
    <g transform="translate(160 214)">
      <circle cx="0" cy="-24" r="20" fill="#3B82F6" />
      <path d="M0 -4v58" stroke="#93C5FD" stroke-width="7" stroke-linecap="round" />
    </g>
    <g transform="translate(136 214)">
      <circle cx="0" cy="-24" r="20" fill="#1D4ED8" />
      <path d="M0 -4v58" stroke="#3B82F6" stroke-width="6" stroke-linecap="round" />
    </g>
  </g>

  <g transform="translate(676 206)">
    <animateTransform attributeName="transform" type="translate" values="676 206;672 202;676 206" dur="1.1s" repeatCount="indefinite" />
    <g stroke="#E2E8F0" stroke-width="8" stroke-linecap="round" stroke-linejoin="round" fill="none">
      <circle cx="0" cy="-24" r="20" fill="#0B1120" stroke="#F8FAFC" stroke-opacity="0.9" />
      <path d="M0 -4v64" />
      <path d="M0 20c24 6 40 18 52 34" />
      <path d="M0 20c-24 6-38 14-52 30" />
      <path d="M0 60c20 10 34 24 42 46" />
      <path d="M0 60c-18 14-30 32-36 52" />
    </g>
    <path d="M-6 4l6 10 6-10-6-6z" fill="#3B82F6" opacity="0.9" />
    <g>
      <path d="M-2 22l10 14 10-14-10-9z" fill="#3B82F6" opacity="0.92" />
    </g>
    <g stroke="#F8FAFC" stroke-width="7" stroke-linecap="round">
      <g>
        <path d="M0 20c-22 0-40 4-58 16" />
        <animateTransform attributeName="transform" type="rotate" values="-18 0 20;8 0 20;-18 0 20" dur="0.6s" repeatCount="indefinite" />
      </g>
      <g>
        <path d="M0 20c22 12 38 18 50 34" />
        <animateTransform attributeName="transform" type="rotate" values="28 0 20;-10 0 20;28 0 20" dur="0.6s" repeatCount="indefinite" />
      </g>
      <g>
        <path d="M0 60c-24 16-38 34-46 58" />
        <animateTransform attributeName="transform" type="rotate" values="-32 0 60;16 0 60;-32 0 60" dur="0.6s" repeatCount="indefinite" />
      </g>
      <g>
        <path d="M0 60c20 20 34 30 42 56" />
        <animateTransform attributeName="transform" type="rotate" values="32 0 60;-16 0 60;32 0 60" dur="0.6s" repeatCount="indefinite" />
      </g>
    </g>
  </g>

  <g opacity="0.18" filter="url(#trail)">
    <g transform="translate(656 206)">
      <circle cx="0" cy="-24" r="20" fill="#3B82F6" />
      <path d="M0 -4v64" stroke="#93C5FD" stroke-width="7" stroke-linecap="round" />
    </g>
  </g>

  <g fill="#F8FAFC" font-family="monospace" font-weight="700" font-size="20" text-anchor="middle">
    <g transform="translate(230 156)">
      <animateTransform attributeName="transform" type="translate" values="230 156;420 132;620 142;780 128" dur="2.2s" repeatCount="indefinite" />
      <rect x="-54" y="-17" width="108" height="34" rx="14" fill="url(#codeCard)" stroke="url(#codeEdge)" stroke-width="2" />
      <text x="0" y="7">const</text>
    </g>
    <g transform="translate(270 110)">
      <animateTransform attributeName="transform" type="translate" values="270 110;452 98;646 110;804 94" dur="1.8s" repeatCount="indefinite" />
      <rect x="-40" y="-16" width="80" height="32" rx="13" fill="url(#codeCard)" stroke="url(#codeEdge)" stroke-width="2" />
      <text x="0" y="7">=&gt;</text>
    </g>
    <g transform="translate(202 194)">
      <animateTransform attributeName="transform" type="translate" values="202 194;398 170;602 182;788 166" dur="2.4s" repeatCount="indefinite" />
      <rect x="-42" y="-16" width="84" height="32" rx="13" fill="url(#codeCard)" stroke="url(#codeEdge)" stroke-width="2" />
      <text x="0" y="7">return</text>
    </g>
    <g transform="translate(164 86)">
      <animateTransform attributeName="transform" type="translate" values="164 86;360 76;558 86;756 70" dur="2s" repeatCount="indefinite" />
      <rect x="-30" y="-16" width="60" height="32" rx="13" fill="url(#codeCard)" stroke="url(#codeEdge)" stroke-width="2" />
      <text x="0" y="7">{}</text>
    </g>
  </g>

  <g opacity="0.16" fill="#93C5FD">
    <circle cx="360" cy="68" r="2">
      <animate attributeName="cy" values="68;58;68" dur="3.4s" repeatCount="indefinite" />
      <animate attributeName="opacity" values="0.12;1;0.12" dur="3.4s" repeatCount="indefinite" />
    </circle>
    <circle cx="818" cy="68" r="2">
      <animate attributeName="cy" values="68;58;68" dur="3.8s" repeatCount="indefinite" />
      <animate attributeName="opacity" values="0.12;1;0.12" dur="3.8s" repeatCount="indefinite" />
    </circle>
    <circle cx="492" cy="358" r="2">
      <animate attributeName="cy" values="358;350;358" dur="4.2s" repeatCount="indefinite" />
      <animate attributeName="opacity" values="0.12;1;0.12" dur="4.2s" repeatCount="indefinite" />
    </circle>
  </g>
</svg>
