<svg xmlns="http://www.w3.org/2000/svg" viewBox="0 0 720 720" role="img" aria-label="Professional avatar drinking coffee">
  <defs>
    <linearGradient id="avatar-bg" x1="0%" y1="0%" x2="100%" y2="100%">
      <stop offset="0%" stop-color="#020617" />
      <stop offset="45%" stop-color="#0F172A" />
      <stop offset="100%" stop-color="#030712" />
    </linearGradient>
    <radialGradient id="avatar-glow" cx="50%" cy="35%" r="58%">
      <stop offset="0%" stop-color="#93C5FD" stop-opacity="0.26" />
      <stop offset="50%" stop-color="#3B82F6" stop-opacity="0.14" />
      <stop offset="100%" stop-color="#020617" stop-opacity="0" />
    </radialGradient>
    <linearGradient id="jacket" x1="0%" y1="0%" x2="100%" y2="100%">
      <stop offset="0%" stop-color="#111827" />
      <stop offset="50%" stop-color="#050816" />
      <stop offset="100%" stop-color="#0F172A" />
    </linearGradient>
    <linearGradient id="shirt" x1="0%" y1="0%" x2="100%" y2="100%">
      <stop offset="0%" stop-color="#E2E8F0" />
      <stop offset="100%" stop-color="#CBD5E1" />
    </linearGradient>
    <linearGradient id="tie" x1="0%" y1="0%" x2="100%" y2="100%">
      <stop offset="0%" stop-color="#1D4ED8" />
      <stop offset="100%" stop-color="#3B82F6" />
    </linearGradient>
    <linearGradient id="skin" x1="0%" y1="0%" x2="100%" y2="100%">
      <stop offset="0%" stop-color="#4B3228" />
      <stop offset="45%" stop-color="#2E1D1A" />
      <stop offset="100%" stop-color="#1E1518" />
    </linearGradient>
    <linearGradient id="skin-light" x1="0%" y1="0%" x2="100%" y2="100%">
      <stop offset="0%" stop-color="#5A3E31" />
      <stop offset="100%" stop-color="#35231D" />
    </linearGradient>
    <linearGradient id="cup" x1="0%" y1="0%" x2="100%" y2="100%">
      <stop offset="0%" stop-color="#E2E8F0" />
      <stop offset="45%" stop-color="#94A3B8" />
      <stop offset="100%" stop-color="#CBD5E1" />
    </linearGradient>
    <linearGradient id="steam" x1="0%" y1="0%" x2="100%" y2="0%">
      <stop offset="0%" stop-color="#93C5FD" stop-opacity="0" />
      <stop offset="45%" stop-color="#93C5FD" stop-opacity="0.72" />
      <stop offset="100%" stop-color="#93C5FD" stop-opacity="0" />
    </linearGradient>
    <filter id="soft" x="-30%" y="-30%" width="160%" height="160%">
      <feGaussianBlur stdDeviation="10" />
    </filter>
    <filter id="steamBlur" x="-30%" y="-30%" width="160%" height="160%">
      <feGaussianBlur stdDeviation="4" />
    </filter>
    <filter id="shadow" x="-30%" y="-30%" width="160%" height="160%">
      <feGaussianBlur stdDeviation="18" />
    </filter>
  </defs>

  <rect width="720" height="720" fill="url(#avatar-bg)" />
  <circle cx="360" cy="272" r="220" fill="url(#avatar-glow)" />
  <g opacity="0.12">
    <path d="M72 110h576" stroke="#1D4ED8" stroke-width="1" />
    <path d="M80 600h560" stroke="#1D4ED8" stroke-width="1" />
    <path d="M92 164h536" stroke="#3B82F6" stroke-width="1" />
  </g>

  <g filter="url(#soft)" opacity="0.35">
    <circle cx="214" cy="176" r="58" fill="#3B82F6">
      <animate attributeName="r" values="52;68;52" dur="7s" repeatCount="indefinite" />
      <animate attributeName="opacity" values="0.22;0.48;0.22" dur="7s" repeatCount="indefinite" />
    </circle>
    <circle cx="512" cy="166" r="46" fill="#2563EB">
      <animate attributeName="r" values="40;58;40" dur="8.4s" repeatCount="indefinite" />
      <animate attributeName="opacity" values="0.16;0.36;0.16" dur="8.4s" repeatCount="indefinite" />
    </circle>
  </g>

  <g transform="translate(0 0)">
    <animateTransform attributeName="transform" type="translate" values="0 0;0 -6;0 0" dur="5.8s" repeatCount="indefinite" />

    <ellipse cx="360" cy="560" rx="188" ry="34" fill="#020617" opacity="0.52" filter="url(#shadow)" />

    <path d="M196 578c20-94 92-162 164-162h0c72 0 144 68 164 162v18H196z" fill="url(#jacket)" />
    <path d="M230 574c16-82 72-128 130-128s114 46 130 128v12H230z" fill="#0B1120" opacity="0.75" />

    <path d="M288 420h144l-16 164H304z" fill="url(#shirt)" />
    <path d="M306 420l54 74 54-74h-108z" fill="url(#tie)" />
    <path d="M330 494l30-16 30 16-30 86z" fill="#1D4ED8" />
    <path d="M318 430l42 56 42-56" fill="none" stroke="#FFFFFF" stroke-opacity="0.5" stroke-width="5" stroke-linecap="round" />

    <path d="M246 328c10-94 64-152 114-152 54 0 108 58 118 152 0 56-36 118-118 118s-114-62-114-118z" fill="url(#skin)" />
    <ellipse cx="360" cy="212" rx="118" ry="52" fill="#050816" />
    <path d="M258 228c16-58 64-88 102-88 44 0 92 30 102 88-14-10-24-16-34-20-26-12-52-16-68-16-18 0-42 4-70 16-10 4-18 10-32 20z" fill="#020617" />
    <path d="M272 214c16-48 52-72 88-72 40 0 76 24 92 72-30-20-54-28-92-28-36 0-60 8-88 28z" fill="#0B1020" opacity="0.92" />
    <path d="M286 244c16-8 30-10 42-8" stroke="#1F2937" stroke-width="5" stroke-linecap="round" opacity="0.6" />
    <path d="M392 236c12-8 24-10 38-6" stroke="#1F2937" stroke-width="5" stroke-linecap="round" opacity="0.6" />

    <g>
      <animateTransform attributeName="transform" type="translate" values="0 0;0 1;0 0" dur="4.8s" repeatCount="indefinite" />
      <g>
        <animate attributeName="opacity" values="1;1;0;1;1" keyTimes="0;0.45;0.5;0.55;1" dur="5.6s" repeatCount="indefinite" />
        <circle cx="316" cy="286" r="9" fill="#0B1020" />
        <circle cx="404" cy="286" r="9" fill="#0B1020" />
        <circle cx="316" cy="286" r="3" fill="#FFFFFF" opacity="0.9" />
        <circle cx="404" cy="286" r="3" fill="#FFFFFF" opacity="0.9" />
      </g>
      <g opacity="0">
        <animate attributeName="opacity" values="0;0;1;0;0" keyTimes="0;0.45;0.5;0.55;1" dur="5.6s" repeatCount="indefinite" />
        <rect x="300" y="283" width="34" height="4" rx="2" fill="#0B1020" />
        <rect x="388" y="283" width="34" height="4" rx="2" fill="#0B1020" />
      </g>
    </g>

    <path d="M328 320c12 8 52 8 64 0" stroke="#1E1518" stroke-width="5" stroke-linecap="round" fill="none" opacity="0.85" />
    <path d="M312 344c20 12 74 12 96 0" stroke="#1E1518" stroke-width="5" stroke-linecap="round" fill="none" opacity="0.55" />
    <path d="M314 350c20 18 92 18 112 0" stroke="#F8FAFC" stroke-opacity="0.08" stroke-width="4" stroke-linecap="round" fill="none" />

    <g opacity="0.35">
      <path d="M268 356c22 18 50 26 92 26s70-8 92-26" stroke="#000000" stroke-width="3" stroke-linecap="round" fill="none" />
      <path d="M270 368c28 22 54 30 90 30s62-8 90-30" stroke="#000000" stroke-width="2" stroke-linecap="round" fill="none" />
    </g>

    <g transform="translate(430 356)">
      <g>
        <animateTransform attributeName="transform" type="translate" values="0 0;0 -3;0 0" dur="4.6s" repeatCount="indefinite" />
        <path d="M36 24h82c8 0 14 6 14 14v54c0 10-8 18-18 18H42c-12 0-22-10-22-22V38c0-8 8-14 16-14z" fill="url(#cup)" />
        <path d="M118 40c18 0 30 12 30 28s-12 28-30 28" fill="none" stroke="#CBD5E1" stroke-width="10" stroke-linecap="round" />
        <rect x="30" y="20" width="90" height="16" rx="8" fill="#E2E8F0" />
        <rect x="34" y="28" width="82" height="6" rx="3" fill="#0F172A" opacity="0.88" />
        <ellipse cx="76" cy="30" rx="30" ry="8" fill="#1D4ED8" opacity="0.14" />
        <g filter="url(#steamBlur)">
          <path d="M48 0c-6-22 16-26 10-46" stroke="url(#steam)" stroke-width="6" fill="none" stroke-linecap="round">
            <animateTransform attributeName="transform" type="translate" values="0 0;0 -10;0 0" dur="2.8s" repeatCount="indefinite" />
            <animate attributeName="opacity" values="0.2;1;0.2" dur="2.8s" repeatCount="indefinite" />
          </path>
          <path d="M70 -4c-8-20 16-28 10-46" stroke="url(#steam)" stroke-width="6" fill="none" stroke-linecap="round">
            <animateTransform attributeName="transform" type="translate" values="0 0;0 -12;0 0" dur="3.2s" repeatCount="indefinite" />
            <animate attributeName="opacity" values="0.15;0.92;0.15" dur="3.2s" repeatCount="indefinite" />
          </path>
          <path d="M94 -2c-8-20 14-28 8-46" stroke="url(#steam)" stroke-width="6" fill="none" stroke-linecap="round">
            <animateTransform attributeName="transform" type="translate" values="0 0;0 -8;0 0" dur="3.6s" repeatCount="indefinite" />
            <animate attributeName="opacity" values="0.15;0.88;0.15" dur="3.6s" repeatCount="indefinite" />
          </path>
        </g>
      </g>
    </g>

    <path d="M206 478c28-30 64-44 96-44h18c-12 38-18 82-18 130v20h-96c-12 0-20-10-20-22 0-34 6-70 20-84z" fill="#111827" />
    <path d="M248 442c22-22 52-34 86-34h14c-12 24-20 58-20 104v6h-70c-12 0-22-10-22-22 0-18 4-38 12-54z" fill="#1D4ED8" opacity="0.22" />
    <path d="M198 522c18-18 38-26 60-26h10c-4 14-6 30-6 46v36h-54c-6 0-10-6-10-12 0-18 0-28 0-44z" fill="#0F172A" opacity="0.9" />

    <path d="M420 468c28 2 52 10 74 28 10 8 18 18 26 30 8 12 14 28 18 48h-74c-10-62-22-96-44-106z" fill="#111827" />
    <path d="M438 470c22 8 40 22 54 42 8 12 14 26 18 40h-38c-4-24-12-58-34-82z" fill="#1D4ED8" opacity="0.18" />

  </g>
</svg>
